<?xml version="1.0" encoding="UTF-8" standalone="no"?>
<!-- Created with Inkscape (http://www.inkscape.org/) -->

<svg
   xmlns:dc="http://purl.org/dc/elements/1.1/"
   xmlns:cc="http://creativecommons.org/ns#"
   xmlns:rdf="http://www.w3.org/1999/02/22-rdf-syntax-ns#"
   xmlns:svg="http://www.w3.org/2000/svg"
   xmlns="http://www.w3.org/2000/svg"
   xmlns:sodipodi="http://sodipodi.sourceforge.net/DTD/sodipodi-0.dtd"
   xmlns:inkscape="http://www.inkscape.org/namespaces/inkscape"
   width="1000"
   height="1000"
   id="svg2"
   version="1.1"
   inkscape:version="0.48.2 r9819"
   inkscape:export-filename="/Users/Robert/Desktop/icon.png"
   inkscape:export-xdpi="5.1300001"
   inkscape:export-ydpi="5.1300001"
   sodipodi:docname="logo.svg">
  <defs
     id="defs4" />
  <sodipodi:namedview
     id="base"
     pagecolor="#ffffff"
     bordercolor="#666666"
     borderopacity="1.0"
     inkscape:pageopacity="1"
     inkscape:pageshadow="2"
     inkscape:zoom="0.474"
     inkscape:cx="500"
     inkscape:cy="500"
     inkscape:document-units="px"
     inkscape:current-layer="layer1"
     showgrid="false"
     inkscape:window-width="1280"
     inkscape:window-height="692"
     inkscape:window-x="0"
     inkscape:window-y="0"
     inkscape:window-maximized="1" />
  <metadata
     id="metadata7">
    <rdf:RDF>
      <cc:Work
         rdf:about="">
        <dc:format>image/svg+xml</dc:format>
        <dc:type
           rdf:resource="http://purl.org/dc/dcmitype/StillImage" />
        <dc:title></dc:title>
      </cc:Work>
    </rdf:RDF>
  </metadata>
  <g
     inkscape:label="Layer 1"
     inkscape:groupmode="layer"
     id="layer1"
     transform="translate(0,-52.362183)">
    <g
       id="g3203"
       transform="matrix(4.6001047,0,0,4.6001047,48.830006,570.18754)"
       style="opacity:1;fill:#4233a0;fill-opacity:1;stroke:#4233a0;stroke-opacity:1">
      <path
         inkscape:connector-curvature="0"
         id="path3055"
         d="m 66.080916,-63.53299 0.07479,44.546315 c -29.165743,-19.625606 -59.1529764,5.523252 -55.895679,29.507082 0.126661,14.005513 5.37684,36.622803 36.673802,36.567045 31.296962,-0.05576 36.84818,-17.09013 36.84818,-31.727536 0,-14.63740462 0.299161,-78.743324 0.299161,-78.743324 z m -17.600222,53.029014 c 12.39313,0.188262 17.628864,7.2150969 17.628864,21.024383 0,13.809285 -4.847767,20.729999 -18.201361,20.729999 -13.353594,0 -20.072287,-7.276392 -20.072287,-20.729999 0,-13.4536065 8.251654,-21.212645 20.644784,-21.024383 z"
         style="fill:#4233a0;fill-opacity:1;stroke:#4233a0;stroke-width:2.42036080000000009;stroke-opacity:1"
         sodipodi:nodetypes="ccczzcczzzzz" />
      <path
         sodipodi:nodetypes="ccccccccccccc"
         inkscape:connector-curvature="0"
         id="path3890"
         d="M 152.33984,46.34464 135.22514,1.9060878 118.56607,46.34464 l -10.05298,0 -23.250042,-72.522228 17.839982,0 13.85689,41.285244 19.89527,-43.396971 19.43424,43.396971 12.79806,-41.285244 16.48276,0 -22.93205,72.522228 z"
         style="fill:#4233a0;fill-opacity:1;stroke:#4233a0;stroke-width:3.55970311000000006;stroke-opacity:1" />
    </g>
  </g>
</svg>
