<?xml version="1.0" encoding="UTF-8" standalone="no"?>
<!-- Created with Inkscape (http://www.inkscape.org/) -->

<svg
   xmlns:dc="http://purl.org/dc/elements/1.1/"
   xmlns:cc="http://creativecommons.org/ns#"
   xmlns:rdf="http://www.w3.org/1999/02/22-rdf-syntax-ns#"
   xmlns:svg="http://www.w3.org/2000/svg"
   xmlns="http://www.w3.org/2000/svg"
   xmlns:sodipodi="http://sodipodi.sourceforge.net/DTD/sodipodi-0.dtd"
   xmlns:inkscape="http://www.inkscape.org/namespaces/inkscape"
   id="svg3039"
   version="1.1"
   inkscape:version="0.48.2 r9819"
   width="231"
   height="31"
   sodipodi:docname="site-logo.svg"
   inkscape:export-filename="/Users/Robert/Desktop/DownhamWeb/DownhamWeb/site-logo@2x.png"
   inkscape:export-xdpi="174.15584"
   inkscape:export-ydpi="174.15584">
  <metadata
     id="metadata3045">
    <rdf:RDF>
      <cc:Work
         rdf:about="">
        <dc:format>image/svg+xml</dc:format>
        <dc:type
           rdf:resource="http://purl.org/dc/dcmitype/StillImage" />
        <dc:title></dc:title>
      </cc:Work>
    </rdf:RDF>
  </metadata>
  <defs
     id="defs3043" />
  <sodipodi:namedview
     pagecolor="#000000"
     bordercolor="#666666"
     borderopacity="1"
     objecttolerance="10"
     gridtolerance="10"
     guidetolerance="10"
     inkscape:pageopacity="0"
     inkscape:pageshadow="2"
     inkscape:window-width="1276"
     inkscape:window-height="674"
     id="namedview3041"
     showgrid="false"
     inkscape:zoom="46.743942"
     inkscape:cx="132.54193"
     inkscape:cy="4.4449437"
     inkscape:window-x="2"
     inkscape:window-y="0"
     inkscape:window-maximized="0"
     inkscape:current-layer="svg3039" />
  <path
     style="fill:#ffffff;fill-opacity:1;stroke:#ffffff;stroke-width:1;stroke-opacity:1"
     d="m 32.15675,10.03125 c -5.648769,0 -10.21875,4.601231 -10.21875,10.25 0,5.648769 4.569981,10.21875 10.21875,10.21875 5.648769,0 10.25,-4.569981 10.25,-10.21875 0,-5.648769 -4.601231,-10.25 -10.25,-10.25 z m 0,5.53125 c 2.607124,0 4.71875,2.111626 4.71875,4.71875 C 36.8755,22.888374 34.763874,25 32.15675,25 29.549626,25 27.438,22.888374 27.438,20.28125 c 0,-2.607124 2.111626,-4.71875 4.71875,-4.71875 z"
     id="path3831"
     inkscape:connector-curvature="0" />
  <path
     style="fill:#ffffff;fill-opacity:1;stroke:#ffffff;stroke-opacity:1"
     d="m 14.943607,-0.1755003 0,11.5937503 C 8.7921394,7.7777967 0.50301197,12.416244 0.50610717,20.387 0.48236017,26.517894 4.4062847,30.495971 11.099857,30.512 c 6.904825,-0.25977 8.816847,-3.378023 10.03125,-8.96875 l 0,-21.7187503 -6.1875,0 z M 10.724857,15.79325 c 2.695956,0 4.875,2.100174 4.875,4.6875 0,2.587326 -2.179044,4.6875 -4.875,4.6875 -2.6959556,0 -4.8749998,-2.100174 -4.8749998,-4.6875 0,-2.587326 2.1790442,-4.6875 4.8749998,-4.6875 z"
     id="path3055"
     inkscape:connector-curvature="0" />
  <path
     style="fill:#ffffff;fill-opacity:1;stroke:#ffffff;stroke-width:1;stroke-opacity:1"
     d="m 119.33786,9.861965 c -2.61396,-0.06331 -5.23739,0.951616 -7.375,2.84375 -4.27523,3.784267 -4.6115,10.247775 -0.75,14.4375 3.8615,4.189724 10.45888,4.513157 14.75,0.65625 L 128.338,31 l 5.44496,-0.04279 -1.8201,-6.501499 -2.96875,-6.59375 c -0.47057,-1.201948 -1.61729,-3.635105 -2.3125,-4.40625 -2.13937,-2.373026 -4.72979,-3.530437 -7.34375,-3.59375 z m -0.84375,5.4375 c 0.162,-0.01645 0.33366,0 0.5,0 2.66144,0 4.8125,2.151061 4.8125,4.8125 0,2.661439 -2.15106,4.8125 -4.8125,4.8125 -2.66144,0 -4.8125,-2.151061 -4.8125,-4.8125 0,-2.495099 1.88251,-4.565721 4.3125,-4.8125 z"
     id="path3870"
     inkscape:connector-curvature="0"
     sodipodi:nodetypes="ssscccccsscssssc" />
  <path
     style="fill:#ffffff;fill-opacity:1;stroke:#ffffff;stroke-opacity:1"
     d="m 209.875,-0.0935003 0,21.7500003 c 1.2144,5.590727 3.12642,8.67773 10.03125,8.9375 6.69357,-0.01603 10.6175,-3.994106 10.59375,-10.125 0.003,-7.970756 -8.28604,-12.5779533 -14.4375,-8.9375 l 0,-11.6250003 -6.1875,0 z M 219.90625,15.93775 c 2.60712,0 4.71875,2.111626 4.71875,4.71875 0,2.607124 -2.11163,4.71875 -4.71875,4.71875 -2.60712,0 -4.71875,-2.111626 -4.71875,-4.71875 0,-2.607124 2.11163,-4.71875 4.71875,-4.71875 z"
     id="path3859"
     inkscape:connector-curvature="0" />
  <path
     style="fill:#ffffff;fill-opacity:1;stroke:#ffffff;stroke-opacity:1"
     d="M 89.787,0.0206137 89.88535,31.098 l 5.310692,0 0,-12.29327 c 0.874376,-3.816381 6.283078,-3.782007 7.080918,0 l 0.0407,12.194924 5.3683,0 0,-12.785001 c -0.43148,-5.863322 -6.88154,-9.6714563 -12.785,-6.490847 l 0,-11.7031923 z"
     id="path3861"
     inkscape:connector-curvature="0"
     sodipodi:nodetypes="ccccccccccc" />
  <path
     sodipodi:nodetypes="ccccccccc"
     inkscape:connector-curvature="0"
     id="path3863"
     d="m 69.501,30.62 5.449774,0 0,-12.29327 c 0.874376,-3.816381 6.283081,-3.782007 7.080921,0 l 0.04074,12.194924 5.437841,0 -0.06954,-12.437296 C 85.687975,8.4658207 72.214271,7.3697857 69.579237,18.199909 z"
     style="fill:#ffffff;fill-opacity:1;stroke:#ffffff;stroke-opacity:1" />
  <path
     style="fill:#ffffff;fill-opacity:1;stroke:#ffffff;stroke-opacity:1"
     d="m 132.904,18.121927 -0.077,12.420091 5.36369,0 0,-12.29327 c 0.86056,-3.816381 6.18382,-3.782007 6.96906,0 l 0.0401,12.295252 5.35194,0 0.009,-12.033962 c 0.86859,-4.00813 5.56598,-3.973756 6.35122,-0.191749 l 0.0401,12.194924 5.69965,0 -0.0684,-12.228673 C 161.34519,8.7355437 150.51828,8.8912477 148.09147,13.474444 145.69846,9.0832487 135.49742,7.2918037 132.904,18.121927 z"
     id="path3865"
     inkscape:connector-curvature="0"
     sodipodi:nodetypes="cccccccccccccc" />
  <path
     style="fill:#ffffff;fill-opacity:1;stroke:#ffffff;stroke-opacity:1"
     d="m 40.54242,10.833102 5.563282,-1e-6 3.824757,9.805285 5.563282,-10.7093183 4.937413,10.7093193 3.755216,-9.805285 5.354659,-0.139082 -8.553546,21.696801 -5.910988,-11.891516 -5.702364,11.613351 z"
     id="path3890"
     inkscape:connector-curvature="0"
     sodipodi:nodetypes="ccccccccccc" />
  <path
     sodipodi:nodetypes="ccccccccccc"
     inkscape:connector-curvature="0"
     id="path3892"
     d="m 161.513,10.902643 5.56328,-10e-7 3.82476,9.805285 5.56328,-10.7093183 4.93741,10.7093193 3.75522,-9.805285 5.35466,-0.139082 -8.55355,21.696801 -5.91099,-11.891516 -5.70236,11.613351 z"
     style="fill:#ffffff;fill-opacity:1;stroke:#ffffff;stroke-opacity:1" />
  <path
     style="fill:#ffffff;fill-opacity:1;stroke:#ffffff;stroke-opacity:1"
     d="m 199.15616,10.143255 c -2.32211,0.0276 -4.65061,0.821085 -6.5625,2.4375 -4.37003,3.694663 -4.91341,10.254969 -1.21875,14.625 3.69466,4.370031 10.16771,4.496559 14.84375,0.53125 l -2.875,-3.40625 c -1.14328,1.085958 -2.18505,1.42575 -3.625,1.5 -2.46595,0.127151 -4.58601,-1.579659 -4.84375,-3.90625 l 14.02355,-0.09375 c 0,0 0.19064,-11.743753 -9.74235,-11.6875 z m 0.21875,4.75 c 1.91089,0.108164 3.71987,1.654839 3.875,3.46875 l -7.90625,0.03125 c 0.12243,-2.008431 1.92227,-3.619376 4.03125,-3.5 z"
     id="path3899"
     inkscape:connector-curvature="0"
     sodipodi:nodetypes="cssccsccccsccs" />
</svg>
